<mxfile>
    <diagram id="v7WB56tkUbFIH35pfNfG" name="ページ1">
        <mxGraphModel dx="209" dy="750" grid="1" gridSize="10" guides="1" tooltips="1" connect="1" arrows="1" fold="1" page="1" pageScale="1" pageWidth="827" pageHeight="1169" math="0" shadow="0">
            <root>
                <mxCell id="0"/>
                <mxCell id="1" parent="0"/>
                <mxCell id="2" value="Hello World!!" style="rounded=1;whiteSpace=wrap;html=1;fillColor=#dae8fc;strokeColor=#6c8ebf;" vertex="1" parent="1">
                    <mxGeometry x="10" y="30" width="120" height="60" as="geometry"/>
                </mxCell>
            </root>
        </mxGraphModel>
    </diagram>
    <diagram id="7GHRLQFi3EdIsItRxoxe" name="ページ2">
        <mxGraphModel dx="209" dy="750" grid="1" gridSize="10" guides="1" tooltips="1" connect="1" arrows="1" fold="1" page="1" pageScale="1" pageWidth="827" pageHeight="1169" math="0" shadow="0">
            <root>
                <mxCell id="WM43qmq9W1dJjfzUSXNQ-0"/>
                <mxCell id="WM43qmq9W1dJjfzUSXNQ-1" parent="WM43qmq9W1dJjfzUSXNQ-0"/>
                <mxCell id="0qqCFDEo1vO2ARqmLr0--0" value="Hoge Hoge" style="rounded=0;whiteSpace=wrap;html=1;fillColor=#fff2cc;strokeColor=#d6b656;" vertex="1" parent="WM43qmq9W1dJjfzUSXNQ-1">
                    <mxGeometry x="20" y="30" width="120" height="60" as="geometry"/>
                </mxCell>
            </root>
        </mxGraphModel>
    </diagram>
</mxfile>